# xmcd CD database file
# Copyright (C) 1993-1998 Ti Kan
#
# Track frame offsets:
#  150
#  15547
#  34677
#  52277
#  97207
#  108960
#  126302
#  149312
#  167050
#  195520
#  216665
#  241560
#
# Disc length: 3462 seconds
#
# Revision: 1
# Processed by: cddbd v1.4b41PL1 Copyright (c) Steve Scherf et al.
# Submitted via: CDWizzard Release:4.35
#
DISCID=ad0d840c
DTITLE=B.B. King and Bobby Bland - Best of B.B. King and Bobby Bland
DYEAR=1900
DGENRE=
TTITLE0=Three O'Clock Blues
TTITLE1=It's My Own Fault
TTITLE2=That's The Way Love Is
TTITLE3=I'm Sorry
TTITLE4=Don't Cry No More
TTITLE5=Don't Answer The Door
TTITLE6=Driftin' Blues
TTITLE7=I'll Take Care Of You
TTITLE8=Why I Sing The Blues
TTITLE9=Goin' Down Slow
TTITLE10=Let The Good Times Roll
TTITLE11=Everyday (I Have The Blues)
EXTD=
EXTT0=
EXTT1=
EXTT2=
EXTT3=
EXTT4=
EXTT5=
EXTT6=
EXTT7=
EXTT8=
EXTT9=
EXTT10=
EXTT11=
PLAYORDER=
